<svg width="176" height="45" viewBox="0 0 176 45" fill="currentColor" xmlns="http://www.w3.org/2000/svg">
<path d="M25.1436 34.429V39H0.330749C0.148837 39 0 38.8511 0 38.6692V29.8581H4.57096V34.429H6.85643V20.7162H11.4274V34.429H25.1436Z" fill="white"/>
<path d="M4.57083 29.8614V32.1469H2.28535V29.8614" fill="white"/>
<path d="M31.9998 34.429V38.6693C31.9998 38.8512 31.851 39 31.6691 39H27.4289V34.429H31.9998Z" fill="white"/>
<path d="M31.9969 20.7162H27.426V32.1436H31.9969V20.7162Z" fill="white"/>
<path d="M27.4256 27.5759V32.1469H18.2837V27.5759H20.5725V20.7162H25.1435V27.5759H27.4256Z" fill="white"/>
<path d="M18.2869 20.7162H13.7126V32.1436H18.2869V20.7162Z" fill="white"/>
<path d="M32 18.434H4.57096V27.2452C4.57096 27.4271 4.42212 27.5759 4.24021 27.5759H0V13.8564H27.429V11.571H0V7.33406C0 7.14884 0.14553 7 0.330749 7H31.6692C31.8512 7 32 7.14884 32 7.33075V18.434Z" fill="white"/>
<path d="M46.31 35V11.24H61.655V14.969H50.2865V20.8265H59.675V24.5555H50.2865V31.271H61.655V35H46.31ZM70.5967 35.495C69.3097 35.495 68.2207 35.253 67.3297 34.769C66.4387 34.274 65.7622 33.6195 65.3002 32.8055C64.8492 31.9915 64.6237 31.095 64.6237 30.116C64.6237 29.258 64.7667 28.488 65.0527 27.806C65.3387 27.113 65.7787 26.519 66.3727 26.024C66.9667 25.518 67.7367 25.1055 68.6827 24.7865C69.3977 24.5555 70.2337 24.3465 71.1907 24.1595C72.1587 23.9725 73.2037 23.802 74.3257 23.648C75.4587 23.483 76.6412 23.307 77.8732 23.12L76.4542 23.9285C76.4652 22.6965 76.1902 21.789 75.6292 21.206C75.0682 20.623 74.1222 20.3315 72.7912 20.3315C71.9882 20.3315 71.2127 20.5185 70.4647 20.8925C69.7167 21.2665 69.1942 21.91 68.8972 22.823L65.2672 21.6845C65.7072 20.1775 66.5432 18.9675 67.7752 18.0545C69.0182 17.1415 70.6902 16.685 72.7912 16.685C74.3752 16.685 75.7667 16.9435 76.9657 17.4605C78.1757 17.9775 79.0722 18.8245 79.6552 20.0015C79.9742 20.6285 80.1667 21.272 80.2327 21.932C80.2987 22.581 80.3317 23.2905 80.3317 24.0605V35H76.8502V31.139L77.4277 31.766C76.6247 33.053 75.6842 33.999 74.6062 34.604C73.5392 35.198 72.2027 35.495 70.5967 35.495ZM71.3887 32.327C72.2907 32.327 73.0607 32.1675 73.6987 31.8485C74.3367 31.5295 74.8427 31.139 75.2167 30.677C75.6017 30.215 75.8602 29.7805 75.9922 29.3735C76.2012 28.8675 76.3167 28.29 76.3387 27.641C76.3717 26.981 76.3882 26.4475 76.3882 26.0405L77.6092 26.4035C76.4102 26.5905 75.3817 26.7555 74.5237 26.8985C73.6657 27.0415 72.9287 27.179 72.3127 27.311C71.6967 27.432 71.1522 27.5695 70.6792 27.7235C70.2172 27.8885 69.8267 28.081 69.5077 28.301C69.1887 28.521 68.9412 28.774 68.7652 29.06C68.6002 29.346 68.5177 29.6815 68.5177 30.0665C68.5177 30.5065 68.6277 30.897 68.8477 31.238C69.0677 31.568 69.3867 31.832 69.8047 32.03C70.2337 32.228 70.7617 32.327 71.3887 32.327ZM91.5079 35.495C89.3079 35.495 87.5204 35 86.1454 34.01C84.7704 33.02 83.9344 31.6285 83.6374 29.8355L87.6964 29.2085C87.9054 30.0885 88.3674 30.7815 89.0824 31.2875C89.7974 31.7935 90.6994 32.0465 91.7884 32.0465C92.7454 32.0465 93.4824 31.8595 93.9994 31.4855C94.5274 31.1005 94.7914 30.578 94.7914 29.918C94.7914 29.511 94.6924 29.1865 94.4944 28.9445C94.3074 28.6915 93.8894 28.4495 93.2404 28.2185C92.5914 27.9875 91.5959 27.696 90.2539 27.344C88.7579 26.948 87.5699 26.5245 86.6899 26.0735C85.8099 25.6115 85.1774 25.067 84.7924 24.44C84.4074 23.813 84.2149 23.054 84.2149 22.163C84.2149 21.052 84.5064 20.084 85.0894 19.259C85.6724 18.434 86.4864 17.8015 87.5314 17.3615C88.5764 16.9105 89.8084 16.685 91.2274 16.685C92.6134 16.685 93.8399 16.8995 94.9069 17.3285C95.9849 17.7575 96.8539 18.368 97.5139 19.16C98.1739 19.952 98.5809 20.8815 98.7349 21.9485L94.6759 22.6745C94.5769 21.9155 94.2304 21.316 93.6364 20.876C93.0534 20.436 92.2724 20.1885 91.2934 20.1335C90.3584 20.0785 89.6049 20.2215 89.0329 20.5625C88.4609 20.8925 88.1749 21.36 88.1749 21.965C88.1749 22.306 88.2904 22.5975 88.5214 22.8395C88.7524 23.0815 89.2144 23.3235 89.9074 23.5655C90.6114 23.8075 91.6564 24.1045 93.0424 24.4565C94.4614 24.8195 95.5944 25.2375 96.4414 25.7105C97.2994 26.1725 97.9154 26.728 98.2894 27.377C98.6744 28.026 98.8669 28.8125 98.8669 29.7365C98.8669 31.5295 98.2124 32.9375 96.9034 33.9605C95.6054 34.9835 93.8069 35.495 91.5079 35.495ZM104.179 42.92L107.611 33.4985L107.677 36.2705L99.9059 17.18H104.047L109.558 31.304H108.502L113.865 17.18H117.841L107.908 42.92H104.179ZM120.302 35V11.24H130.12C130.351 11.24 130.648 11.251 131.011 11.273C131.374 11.284 131.709 11.317 132.017 11.372C133.392 11.581 134.525 12.0375 135.416 12.7415C136.318 13.4455 136.984 14.3365 137.413 15.4145C137.853 16.4815 138.073 17.6695 138.073 18.9785C138.073 20.2765 137.853 21.4645 137.413 22.5425C136.973 23.6095 136.302 24.495 135.4 25.199C134.509 25.903 133.381 26.3595 132.017 26.5685C131.709 26.6125 131.368 26.6455 130.994 26.6675C130.631 26.6895 130.34 26.7005 130.12 26.7005H124.279V35H120.302ZM124.279 22.988H129.955C130.175 22.988 130.422 22.977 130.697 22.955C130.972 22.933 131.225 22.889 131.456 22.823C132.116 22.658 132.633 22.3665 133.007 21.9485C133.392 21.5305 133.662 21.0575 133.816 20.5295C133.981 20.0015 134.063 19.4845 134.063 18.9785C134.063 18.4725 133.981 17.9555 133.816 17.4275C133.662 16.8885 133.392 16.41 133.007 15.992C132.633 15.574 132.116 15.2825 131.456 15.1175C131.225 15.0515 130.972 15.013 130.697 15.002C130.422 14.98 130.175 14.969 129.955 14.969H124.279V22.988ZM141.378 35V11.24H155.684V15.2165H145.355V21.14H153.704V25.1H145.355V35H141.378ZM158.652 35V11.24H173.997V14.969H162.628V20.8265H172.017V24.5555H162.628V31.271H173.997V35H158.652Z" fill="white"/>
</svg>
