<svg width="242" height="318" viewBox="0 0 242 318" fill="none" xmlns="http://www.w3.org/2000/svg">
<path d="M190.148 207.432V242H2.50129C1.12558 242 0 240.874 0 239.499V172.864H34.5679V207.432H51.8518V103.729H86.4196V207.432H190.148Z" fill="white"/>
<path d="M34.5671 172.89V190.174H17.2832V172.89" fill="white"/>
<path d="M241.999 207.432V239.499C241.999 240.875 240.873 242 239.497 242H207.431V207.432H241.999Z" fill="white"/>
<path d="M241.977 103.729H207.409V190.148H241.977V103.729Z" fill="white"/>
<path d="M207.406 155.605V190.173H138.271V155.605H155.579V103.729H190.147V155.605H207.406Z" fill="white"/>
<path d="M138.295 103.729H103.702V190.148H138.295V103.729Z" fill="white"/>
<path d="M242 2.52631V86.4697H34.5679V153.104C34.5679 154.48 33.4423 155.605 32.0666 155.605H0V51.8518H207.432V34.5679H0V2.52631C0 1.12558 1.10057 0 2.50129 0H239.499C240.874 0 242 1.12558 242 2.50129V2.52631Z" fill="white"/>
<path d="M10.9676 274.992C10.5303 274.992 10.1783 274.821 9.91163 274.48C9.65563 274.128 9.52763 273.685 9.52763 273.152C9.52763 272.384 9.75696 271.787 10.2156 271.36C10.6743 270.933 11.3036 270.715 12.1036 270.704V271.648C11.6343 271.648 11.277 271.765 11.0316 272C10.797 272.235 10.6796 272.512 10.6796 272.832C10.6796 272.928 10.685 273.003 10.6956 273.056C10.845 272.939 11.021 272.88 11.2236 272.88C11.501 272.88 11.7303 272.971 11.9116 273.152C12.093 273.333 12.1836 273.584 12.1836 273.904C12.1836 274.213 12.0663 274.475 11.8316 274.688C11.6076 274.891 11.3196 274.992 10.9676 274.992ZM14.0396 274.992C13.6023 274.992 13.2503 274.821 12.9836 274.48C12.7276 274.128 12.5996 273.685 12.5996 273.152C12.5996 272.384 12.829 271.787 13.2876 271.36C13.7463 270.933 14.3756 270.715 15.1756 270.704V271.648C14.7063 271.648 14.3543 271.765 14.1196 272C13.885 272.235 13.7676 272.512 13.7676 272.832C13.7676 272.928 13.773 273.003 13.7836 273.056C13.9223 272.939 14.0983 272.88 14.3116 272.88C14.589 272.88 14.813 272.971 14.9836 273.152C15.165 273.333 15.2556 273.584 15.2556 273.904C15.2556 274.213 15.1436 274.475 14.9196 274.688C14.6956 274.891 14.4023 274.992 14.0396 274.992ZM21.8133 282H19.9093L24.1013 270.8H26.2933L30.4693 282H28.5013L27.4453 279.232H22.8533L21.8133 282ZM25.1413 272.784L23.3653 277.664H26.9333L25.1413 272.784ZM39.5195 282H35.7115V270.8H39.5195C41.2582 270.8 42.6448 271.312 43.6795 272.336C44.7142 273.36 45.2315 274.709 45.2315 276.384C45.2315 278.059 44.7142 279.413 43.6795 280.448C42.6448 281.483 41.2582 282 39.5195 282ZM37.5515 272.4V280.4H39.5195C40.7355 280.4 41.6742 280.037 42.3355 279.312C43.0075 278.587 43.3435 277.611 43.3435 276.384C43.3435 275.168 43.0075 274.203 42.3355 273.488C41.6742 272.763 40.7355 272.4 39.5195 272.4H37.5515ZM46.8521 282V270.8H54.1641V272.432H48.6921V275.536H53.2041V277.12H48.6921V280.368H54.3561V282H46.8521ZM55.4198 278.32L57.2758 278.352C57.3291 279.013 57.5958 279.547 58.0758 279.952C58.5558 280.347 59.1851 280.544 59.9638 280.544C60.6464 280.544 61.1958 280.4 61.6118 280.112C62.0384 279.813 62.2518 279.403 62.2518 278.88C62.2518 278.645 62.1984 278.443 62.0918 278.272C61.9958 278.101 61.8784 277.963 61.7398 277.856C61.6011 277.739 61.3878 277.632 61.0998 277.536C60.8118 277.44 60.5451 277.365 60.2998 277.312C60.0651 277.259 59.7344 277.195 59.3078 277.12C58.7744 277.024 58.3158 276.917 57.9318 276.8C57.5584 276.672 57.1851 276.496 56.8118 276.272C56.4491 276.048 56.1718 275.744 55.9798 275.36C55.7878 274.976 55.6918 274.517 55.6918 273.984C55.6918 273.003 56.0544 272.213 56.7798 271.616C57.5158 271.008 58.4811 270.704 59.6758 270.704C60.9451 270.704 61.9584 271.019 62.7158 271.648C63.4731 272.277 63.8731 273.115 63.9158 274.16H62.0758C62.0011 273.584 61.7504 273.125 61.3238 272.784C60.8971 272.432 60.3478 272.256 59.6758 272.256C59.0251 272.256 58.5024 272.395 58.1078 272.672C57.7238 272.949 57.5318 273.344 57.5318 273.856C57.5318 274.379 57.7558 274.747 58.2038 274.96C58.6518 275.173 59.3984 275.371 60.4438 275.552C60.9771 275.648 61.4304 275.76 61.8038 275.888C62.1878 276.005 62.5664 276.181 62.9398 276.416C63.3238 276.64 63.6118 276.944 63.8038 277.328C63.9958 277.712 64.0918 278.165 64.0918 278.688C64.0918 279.701 63.7078 280.523 62.9398 281.152C62.1718 281.781 61.1744 282.096 59.9478 282.096C58.5718 282.096 57.4784 281.755 56.6678 281.072C55.8678 280.379 55.4518 279.461 55.4198 278.32ZM65.7115 282V270.8H67.5515V276.576L72.6875 270.8H74.9275L70.8155 275.504L75.2315 282H73.0075L69.4875 276.864L67.5515 279.04V282H65.7115ZM75.445 272.432V270.8H84.197V272.432H80.741V282H78.901V272.432H75.445ZM93.7176 272.32C94.731 273.387 95.2376 274.747 95.2376 276.4C95.2376 278.053 94.731 279.419 93.7176 280.496C92.7043 281.563 91.3976 282.096 89.7976 282.096C88.1976 282.096 86.891 281.563 85.8776 280.496C84.8643 279.419 84.3576 278.053 84.3576 276.4C84.3576 274.747 84.8643 273.387 85.8776 272.32C86.891 271.243 88.1976 270.704 89.7976 270.704C91.3976 270.704 92.7043 271.243 93.7176 272.32ZM87.2216 273.472C86.571 274.229 86.2456 275.205 86.2456 276.4C86.2456 277.595 86.571 278.576 87.2216 279.344C87.883 280.101 88.7416 280.48 89.7976 280.48C90.8536 280.48 91.707 280.101 92.3576 279.344C93.019 278.576 93.3496 277.595 93.3496 276.4C93.3496 275.205 93.019 274.229 92.3576 273.472C91.707 272.704 90.8536 272.32 89.7976 272.32C88.7416 272.32 87.883 272.704 87.2216 273.472ZM96.8521 282V270.8H101.268C102.441 270.8 103.38 271.125 104.084 271.776C104.788 272.416 105.14 273.28 105.14 274.368C105.14 275.445 104.788 276.309 104.084 276.96C103.38 277.611 102.441 277.936 101.268 277.936H98.6921V282H96.8521ZM101.124 272.4H98.6921V276.336H101.108C101.769 276.336 102.292 276.16 102.676 275.808C103.071 275.445 103.268 274.965 103.268 274.368C103.268 273.76 103.076 273.28 102.692 272.928C102.308 272.576 101.785 272.4 101.124 272.4ZM111.657 282H109.753L113.945 270.8H116.137L120.313 282H118.345L117.289 279.232H112.697L111.657 282ZM114.985 272.784L113.209 277.664H116.777L114.985 272.784ZM121.462 282V270.8H125.878C127.051 270.8 127.99 271.125 128.694 271.776C129.398 272.416 129.75 273.28 129.75 274.368C129.75 275.445 129.398 276.309 128.694 276.96C127.99 277.611 127.051 277.936 125.878 277.936H123.302V282H121.462ZM125.734 272.4H123.302V276.336H125.718C126.379 276.336 126.902 276.16 127.286 275.808C127.68 275.445 127.878 274.965 127.878 274.368C127.878 273.76 127.686 273.28 127.302 272.928C126.918 272.576 126.395 272.4 125.734 272.4ZM131.165 282V270.8H135.581C136.754 270.8 137.693 271.125 138.397 271.776C139.101 272.416 139.453 273.28 139.453 274.368C139.453 275.445 139.101 276.309 138.397 276.96C137.693 277.611 136.754 277.936 135.581 277.936H133.005V282H131.165ZM135.437 272.4H133.005V276.336H135.421C136.082 276.336 136.605 276.16 136.989 275.808C137.383 275.445 137.581 274.965 137.581 274.368C137.581 273.76 137.389 273.28 137.005 272.928C136.621 272.576 136.098 272.4 135.437 272.4ZM147.524 282H140.868V270.8H142.708V280.368H147.524V282ZM148.868 282V270.8H150.708V282H148.868ZM157.622 282.096C156.001 282.096 154.71 281.579 153.75 280.544C152.801 279.509 152.326 278.128 152.326 276.4C152.326 274.683 152.817 273.307 153.798 272.272C154.78 271.227 156.092 270.704 157.734 270.704C159.014 270.704 160.081 271.061 160.934 271.776C161.798 272.48 162.321 273.424 162.502 274.608H160.598C160.417 273.893 160.065 273.333 159.542 272.928C159.03 272.523 158.401 272.32 157.654 272.32C156.598 272.32 155.761 272.699 155.142 273.456C154.524 274.203 154.214 275.184 154.214 276.4C154.214 277.616 154.518 278.603 155.126 279.36C155.734 280.107 156.561 280.48 157.606 280.48C158.374 280.48 159.014 280.277 159.526 279.872C160.049 279.467 160.401 278.907 160.582 278.192H162.486C162.305 279.376 161.772 280.325 160.886 281.04C160.012 281.744 158.924 282.096 157.622 282.096ZM164.61 282H162.706L166.898 270.8H169.09L173.266 282H171.298L170.242 279.232H165.65L164.61 282ZM167.938 272.784L166.162 277.664H169.73L167.938 272.784ZM172.179 272.432V270.8H180.931V272.432H177.475V282H175.635V272.432H172.179ZM182.274 282V270.8H184.114V282H182.274ZM195.093 272.32C196.106 273.387 196.613 274.747 196.613 276.4C196.613 278.053 196.106 279.419 195.093 280.496C194.079 281.563 192.773 282.096 191.173 282.096C189.573 282.096 188.266 281.563 187.253 280.496C186.239 279.419 185.733 278.053 185.733 276.4C185.733 274.747 186.239 273.387 187.253 272.32C188.266 271.243 189.573 270.704 191.173 270.704C192.773 270.704 194.079 271.243 195.093 272.32ZM188.597 273.472C187.946 274.229 187.621 275.205 187.621 276.4C187.621 277.595 187.946 278.576 188.597 279.344C189.258 280.101 190.117 280.48 191.173 280.48C192.229 280.48 193.082 280.101 193.733 279.344C194.394 278.576 194.725 277.595 194.725 276.4C194.725 275.205 194.394 274.229 193.733 273.472C193.082 272.704 192.229 272.32 191.173 272.32C190.117 272.32 189.258 272.704 188.597 273.472ZM200.035 282H198.227V270.8H199.907L205.363 278.736V270.8H207.171V282H205.491L200.035 274.064V282ZM212.601 272.432V270.8H221.353V272.432H217.897V282H216.057V272.432H212.601ZM230.874 272.32C231.887 273.387 232.394 274.747 232.394 276.4C232.394 278.053 231.887 279.419 230.874 280.496C229.861 281.563 228.554 282.096 226.954 282.096C225.354 282.096 224.047 281.563 223.034 280.496C222.021 279.419 221.514 278.053 221.514 276.4C221.514 274.747 222.021 273.387 223.034 272.32C224.047 271.243 225.354 270.704 226.954 270.704C228.554 270.704 229.861 271.243 230.874 272.32ZM224.378 273.472C223.727 274.229 223.402 275.205 223.402 276.4C223.402 277.595 223.727 278.576 224.378 279.344C225.039 280.101 225.898 280.48 226.954 280.48C228.01 280.48 228.863 280.101 229.514 279.344C230.175 278.576 230.506 277.595 230.506 276.4C230.506 275.205 230.175 274.229 229.514 273.472C228.863 272.704 228.01 272.32 226.954 272.32C225.898 272.32 225.039 272.704 224.378 273.472ZM9.27131 306.32L11.1273 306.352C11.1806 307.013 11.4473 307.547 11.9273 307.952C12.4073 308.347 13.0366 308.544 13.8153 308.544C14.498 308.544 15.0473 308.4 15.4633 308.112C15.89 307.813 16.1033 307.403 16.1033 306.88C16.1033 306.645 16.05 306.443 15.9433 306.272C15.8473 306.101 15.73 305.963 15.5913 305.856C15.4526 305.739 15.2393 305.632 14.9513 305.536C14.6633 305.44 14.3966 305.365 14.1513 305.312C13.9166 305.259 13.586 305.195 13.1593 305.12C12.626 305.024 12.1673 304.917 11.7833 304.8C11.41 304.672 11.0366 304.496 10.6633 304.272C10.3006 304.048 10.0233 303.744 9.83131 303.36C9.63931 302.976 9.54331 302.517 9.54331 301.984C9.54331 301.003 9.90598 300.213 10.6313 299.616C11.3673 299.008 12.3326 298.704 13.5273 298.704C14.7966 298.704 15.81 299.019 16.5673 299.648C17.3246 300.277 17.7246 301.115 17.7673 302.16H15.9273C15.8526 301.584 15.602 301.125 15.1753 300.784C14.7486 300.432 14.1993 300.256 13.5273 300.256C12.8766 300.256 12.354 300.395 11.9593 300.672C11.5753 300.949 11.3833 301.344 11.3833 301.856C11.3833 302.379 11.6073 302.747 12.0553 302.96C12.5033 303.173 13.25 303.371 14.2953 303.552C14.8286 303.648 15.282 303.76 15.6553 303.888C16.0393 304.005 16.418 304.181 16.7913 304.416C17.1753 304.64 17.4633 304.944 17.6553 305.328C17.8473 305.712 17.9433 306.165 17.9433 306.688C17.9433 307.701 17.5593 308.523 16.7913 309.152C16.0233 309.781 15.026 310.096 13.7993 310.096C12.4233 310.096 11.33 309.755 10.5193 309.072C9.71931 308.379 9.30331 307.461 9.27131 306.32ZM19.5631 310V298.8H21.4031V310H19.5631ZM23.4537 310V298.8H25.8377L29.4217 307.616L32.9417 298.8H35.2777V310H33.5017V301.76L30.1417 310H28.5897L25.2297 301.76V310H23.4537ZM37.3287 310V298.8H41.7447C42.918 298.8 43.8567 299.125 44.5607 299.776C45.2647 300.416 45.6167 301.28 45.6167 302.368C45.6167 303.445 45.2647 304.309 44.5607 304.96C43.8567 305.611 42.918 305.936 41.7447 305.936H39.1687V310H37.3287ZM41.6007 300.4H39.1687V304.336H41.5847C42.246 304.336 42.7687 304.16 43.1527 303.808C43.5474 303.445 43.7447 302.965 43.7447 302.368C43.7447 301.76 43.5527 301.28 43.1687 300.928C42.7847 300.576 42.262 300.4 41.6007 300.4ZM53.6878 310H47.0318V298.8H48.8718V308.368H53.6878V310ZM55.0318 310V298.8H56.8718V310H55.0318ZM58.9224 310V298.8H66.0744V300.432H60.7624V303.68H65.1464V305.264H60.7624V310H58.9224ZM70.7169 305.856L66.5409 298.8H68.7009L71.6449 303.92L74.6689 298.8H76.7329L72.5569 305.856V310H70.7169V305.856ZM81.9381 310V298.8H86.3541C87.5274 298.8 88.4661 299.125 89.1701 299.776C89.8741 300.416 90.2261 301.28 90.2261 302.368C90.2261 303.445 89.8741 304.309 89.1701 304.96C88.4661 305.611 87.5274 305.936 86.3541 305.936H83.7781V310H81.9381ZM86.2101 300.4H83.7781V304.336H86.1941C86.8554 304.336 87.3781 304.16 87.7621 303.808C88.1567 303.445 88.3541 302.965 88.3541 302.368C88.3541 301.76 88.1621 301.28 87.7781 300.928C87.3941 300.576 86.8714 300.4 86.2101 300.4ZM91.6412 310V298.8H98.7932V300.432H93.4812V303.68H97.8652V305.264H93.4812V310H91.6412ZM100.204 310V298.8H107.516V300.432H102.044V303.536H106.556V305.12H102.044V308.368H107.708V310H100.204ZM113.313 310V298.8H115.697L119.281 307.616L122.801 298.8H125.137V310H123.361V301.76L120.001 310H118.449L115.089 301.76V310H113.313ZM128.196 310H126.292L130.484 298.8H132.676L136.852 310H134.884L133.828 307.232H129.236L128.196 310ZM131.524 300.784L129.748 305.664H133.316L131.524 300.784ZM139.809 310H138.001V298.8H139.681L145.137 306.736V298.8H146.945V310H145.265L139.809 302.064V310ZM149.993 310H148.089L152.281 298.8H154.473L158.649 310H156.681L155.625 307.232H151.033L149.993 310ZM153.321 300.784L151.545 305.664H155.113L153.321 300.784ZM164.177 310.096C162.609 310.096 161.334 309.573 160.353 308.528C159.372 307.472 158.881 306.096 158.881 304.4C158.881 302.683 159.372 301.307 160.353 300.272C161.345 299.227 162.668 298.704 164.321 298.704C165.612 298.704 166.694 299.061 167.569 299.776C168.444 300.48 168.966 301.424 169.137 302.608H167.233C167.062 301.893 166.716 301.333 166.193 300.928C165.681 300.523 165.041 300.32 164.273 300.32C163.217 300.32 162.369 300.699 161.729 301.456C161.089 302.213 160.769 303.195 160.769 304.4C160.769 305.616 161.084 306.603 161.713 307.36C162.353 308.107 163.201 308.48 164.257 308.48C165.153 308.48 165.9 308.235 166.497 307.744C167.105 307.253 167.43 306.571 167.473 305.696V305.424H164.369V303.872H169.233V310H167.809L167.649 308.496C167.34 308.944 166.886 309.323 166.289 309.632C165.702 309.941 164.998 310.096 164.177 310.096ZM171.282 310V298.8H178.594V300.432H173.122V303.536H177.634V305.12H173.122V308.368H178.786V310H171.282ZM180.297 310V298.8H182.681L186.265 307.616L189.785 298.8H192.121V310H190.345V301.76L186.985 310H185.433L182.073 301.76V310H180.297ZM194.172 310V298.8H201.484V300.432H196.012V303.536H200.524V305.12H196.012V308.368H201.676V310H194.172ZM204.996 310H203.188V298.8H204.868L210.324 306.736V298.8H212.132V310H210.452L204.996 302.064V310ZM213.468 300.432V298.8H222.22V300.432H218.764V310H216.924V300.432H213.468ZM228.585 302.992C228.147 302.992 227.795 302.821 227.529 302.48C227.273 302.128 227.145 301.685 227.145 301.152C227.145 300.384 227.374 299.787 227.833 299.36C228.291 298.933 228.921 298.715 229.721 298.704V299.648C229.251 299.648 228.894 299.765 228.649 300C228.414 300.235 228.297 300.512 228.297 300.832C228.297 300.928 228.302 301.003 228.313 301.056C228.462 300.939 228.638 300.88 228.841 300.88C229.118 300.88 229.347 300.971 229.529 301.152C229.71 301.333 229.801 301.584 229.801 301.904C229.801 302.213 229.683 302.475 229.449 302.688C229.225 302.891 228.937 302.992 228.585 302.992ZM231.657 302.992C231.219 302.992 230.867 302.821 230.601 302.48C230.345 302.128 230.217 301.685 230.217 301.152C230.217 300.384 230.446 299.787 230.905 299.36C231.363 298.933 231.993 298.715 232.793 298.704V299.648C232.323 299.648 231.971 299.765 231.737 300C231.502 300.235 231.385 300.512 231.385 300.832C231.385 300.928 231.39 301.003 231.401 301.056C231.539 300.939 231.715 300.88 231.929 300.88C232.206 300.88 232.43 300.971 232.601 301.152C232.782 301.333 232.873 301.584 232.873 301.904C232.873 302.213 232.761 302.475 232.537 302.688C232.313 302.891 232.019 302.992 231.657 302.992Z" fill="white" fill-opacity="0.7"/>
</svg>
