<svg width="15" height="15" viewBox="0 0 15 15" fill="none" xmlns="http://www.w3.org/2000/svg">
<path d="M1.49981 1.5L6.36131 7.57575C6.57412 7.84187 6.68997 8.17251 6.68981 8.51325V13.5L8.18981 12.375V8.5125C8.18983 8.17202 8.30567 7.84167 8.51831 7.57575L13.3798 1.5H1.50056H1.49981ZM1.49981 0H13.3798C13.6624 3.52505e-05 13.9392 0.0798927 14.1784 0.230374C14.4176 0.380856 14.6094 0.59584 14.7318 0.850565C14.8541 1.10529 14.902 1.38939 14.8699 1.67015C14.8379 1.95091 14.7272 2.21691 14.5506 2.4375L9.68981 8.5125V12.375C9.68981 12.6079 9.6356 12.8375 9.53146 13.0458C9.42731 13.2541 9.27611 13.4353 9.08981 13.575L7.58981 14.7C7.36696 14.8671 7.10196 14.9689 6.82452 14.9939C6.54708 15.019 6.26815 14.9662 6.01899 14.8416C5.76983 14.7171 5.56029 14.5256 5.41384 14.2886C5.26739 14.0516 5.18981 13.7786 5.18981 13.5V8.5125L0.329064 2.4375C0.152449 2.21691 0.0417381 1.95091 0.0096829 1.67015C-0.0223723 1.38939 0.0255322 1.10529 0.147879 0.850565C0.270225 0.59584 0.462037 0.380856 0.70122 0.230374C0.940404 0.0798927 1.21723 3.52505e-05 1.49981 0Z" fill="#B0BABF"/>
</svg>
