<svg width="32" height="32" viewBox="0 0 32 32" fill="none" xmlns="http://www.w3.org/2000/svg">
<path d="M25.1436 27.429V32H0.330749C0.148837 32 0 31.8511 0 31.6692V22.8581H4.57096V27.429H6.85643V13.7162H11.4274V27.429H25.1436Z" fill="white"/>
<path d="M4.57083 22.8614V25.1469H2.28535V22.8614" fill="white"/>
<path d="M31.9998 27.429V31.6693C31.9998 31.8512 31.851 32 31.6691 32H27.4289V27.429H31.9998Z" fill="white"/>
<path d="M31.9969 13.7162H27.426V25.1436H31.9969V13.7162Z" fill="white"/>
<path d="M27.4256 20.5759V25.1469H18.2837V20.5759H20.5725V13.7162H25.1435V20.5759H27.4256Z" fill="white"/>
<path d="M18.2869 13.7162H13.7126V25.1436H18.2869V13.7162Z" fill="white"/>
<path d="M32 11.434H4.57096V20.2452C4.57096 20.4271 4.42212 20.5759 4.24021 20.5759H0V6.85643H27.429V4.57095H0V0.334057C0 0.148837 0.14553 0 0.330749 0H31.6692C31.8512 0 32 0.148837 32 0.330749V11.434Z" fill="white"/>
</svg>
