<svg width="16" height="20" viewBox="0 0 16 20" fill="currentColor" xmlns="http://www.w3.org/2000/svg">
<path fill-rule="evenodd" clip-rule="evenodd" d="M15.2901 15.04L14.0001 13.75V8.75C14.0001 5.68 12.3601 3.11 9.50005 2.43V1.75C9.50005 0.92 8.83005 0.25 8.00005 0.25C7.17005 0.25 6.50005 0.92 6.50005 1.75V2.43C3.63005 3.11 2.00005 5.67 2.00005 8.75V13.75L0.710051 15.04C0.0800514 15.67 0.520051 16.75 1.41005 16.75H14.5801C15.4801 16.75 15.9201 15.67 15.2901 15.04ZM4.00005 14.75V8.75C4.00005 6.27 5.51005 4.25 8.00005 4.25C10.4901 4.25 12.0001 6.27 12.0001 8.75V14.75H4.00005ZM10.0001 17.75C10.0001 18.85 9.10005 19.75 8.00005 19.75C6.89005 19.75 6.00005 18.85 6.00005 17.75H10.0001Z" fill="#6D7D8B"/>
</svg>
