<svg width="32" height="33" viewBox="0 0 32 33" fill="none" xmlns="http://www.w3.org/2000/svg">
    <rect y="0.5" width="32" height="32" rx="4" fill="#077ED4"/>
    <path d="M16.834 10.6663C16.834 10.2061 16.4609 9.83301 16.0007 9.83301C15.5404 9.83301 15.1673 10.2061 15.1673 10.6663V15.6663H10.1673C9.70708 15.6663 9.33398 16.0394 9.33398 16.4997C9.33398 16.9599 9.70708 17.333 10.1673 17.333H15.1673V22.333C15.1673 22.7932 15.5404 23.1663 16.0007 23.1663C16.4609 23.1663 16.834 22.7932 16.834 22.333V17.333H21.834C22.2942 17.333 22.6673 16.9599 22.6673 16.4997C22.6673 16.0394 22.2942 15.6663 21.834 15.6663H16.834V10.6663Z" fill="white"/>
    </svg>
    