<svg width="63" height="63" viewBox="0 0 63 63" fill="none" xmlns="http://www.w3.org/2000/svg">
<path fill-rule="evenodd" clip-rule="evenodd" d="M0.248001 31.5C0.248001 14.2187 14.217 0.25 31.498 0.25C48.779 0.25 62.748 14.2187 62.748 31.5C62.748 48.7812 48.779 62.75 31.498 62.75C14.217 62.75 0.248001 48.7812 0.248001 31.5ZM40.529 44.9377C41.748 46.1565 43.717 46.1565 44.936 44.9377C46.123 43.719 46.123 41.719 44.936 40.5315L35.904 31.5002L44.936 22.469C46.154 21.2502 46.154 19.2815 44.936 18.0627C43.717 16.844 41.748 16.844 40.529 18.0627L31.498 27.094L22.467 18.0627C21.248 16.844 19.279 16.844 18.061 18.0627C17.476 18.6466 17.147 19.4393 17.147 20.2659C17.147 21.0925 17.476 21.8851 18.061 22.469L27.092 31.5002L18.061 40.5315C17.476 41.1153 17.147 41.908 17.147 42.7346C17.147 43.5612 17.476 44.3539 18.061 44.9377C19.279 46.1565 21.248 46.1565 22.467 44.9377L31.498 35.9065L40.529 44.9377Z" fill="#C62828"/>
</svg>
