<svg width="22" height="21" viewBox="0 0 22 21" fill="none" xmlns="http://www.w3.org/2000/svg">
<path d="M10.9992 10.4999V19.4999M10.9992 10.4999L8.49923 12.4999M10.9992 10.4999L13.4992 12.4999M4.03323 7.61694C3.08744 7.85494 2.26111 8.4301 1.70948 9.23438C1.15786 10.0387 0.918911 11.0167 1.03754 11.9847C1.15616 12.9528 1.62419 13.8442 2.35369 14.4914C3.0832 15.1387 4.02396 15.4974 4.99923 15.4999H5.99923" stroke="#313638" stroke-width="2" stroke-linecap="round" stroke-linejoin="round"/>
<path d="M14.8287 5.63796C14.4869 4.28453 13.6433 3.1117 12.4688 2.35722C11.2944 1.60274 9.87697 1.32305 8.50395 1.57487C7.13093 1.82668 5.90503 2.59115 5.07476 3.7133C4.24448 4.83545 3.87195 6.23133 4.03269 7.61796C4.03269 7.61796 4.18569 8.49996 4.49869 8.99996" stroke="#313638" stroke-width="2" stroke-linecap="round" stroke-linejoin="round"/>
<path d="M16 15.5C16.706 15.4995 17.404 15.3495 18.0479 15.0599C18.6917 14.7702 19.267 14.3475 19.7357 13.8195C20.2045 13.2915 20.5561 12.6702 20.7674 11.9965C20.9787 11.3229 21.045 10.6121 20.9618 9.91094C20.8786 9.20982 20.6479 8.53427 20.2848 7.92874C19.9217 7.32321 19.4345 6.80145 18.8552 6.39778C18.276 5.99412 17.6178 5.71772 16.924 5.58676C16.2302 5.4558 15.5166 5.47327 14.83 5.638L13.5 6" stroke="#313638" stroke-width="2" stroke-linecap="round" stroke-linejoin="round"/>
</svg>
